<svg width="200" height="141" viewBox="0 0 200 141" xmlns="http://www.w3.org/2000/svg"><title>vr</title><g fill="none" fill-rule="evenodd"><rect fill="#58C0BC" x="15.333" width="170" height="126" rx="20"/><path d="M0 36.658c0-11.04 8.95-19.99 20-19.99h160c11.046 0 20 8.954 20 19.99v84.017c0 11.04-8.957 19.992-19.994 19.992h-44.428C121.643 140.667 121.008 90 100 90c-21.007 0-21.793 50.667-36.846 50.667H20.01C8.957 140.667 0 131.71 0 120.675V36.658zm56.333 64.01c12.335 0 22.334-10 22.334-22.335C78.667 66 68.667 56 56.333 56S34 66 34 78.333c0 12.335 10 22.334 22.333 22.334zm88.667 0c12.334 0 22.333-10 22.333-22.335C167.333 66 157.333 56 145 56c-12.334 0-22.333 10-22.333 22.333 0 12.335 10 22.334 22.333 22.334z" fill="#4E436D"/></g></svg>