<svg version="1.1" viewBox="0.0 0.0 960.0 374.56167979002623" fill="none" stroke="none" stroke-linecap="square" stroke-miterlimit="10" xmlns:xlink="http://www.w3.org/1999/xlink" xmlns="http://www.w3.org/2000/svg"><clipPath id="p.0"><path d="m0 0l960.0 0l0 374.56168l-960.0 0l0 -374.56168z" clip-rule="nonzero"/></clipPath><g clip-path="url(#p.0)"><path fill="#000000" fill-opacity="0.0" d="m0 0l960.0 0l0 374.56168l-960.0 0z" fill-rule="evenodd"/><path fill="#999999" d="m91.88976 268.1401l0 0c0 12.198639 32.36241 22.087616 72.28347 22.087616c39.92105 0 72.28346 -9.888977 72.28346 -22.087616l0 59.22635c0 12.198639 -32.36241 22.087616 -72.28346 22.087616c-39.92106 0 -72.28347 -9.888977 -72.28347 -22.087616z" fill-rule="evenodd"/><path fill="#c1c1c1" d="m91.88976 268.1401l0 0c0 -12.198654 32.36241 -22.087616 72.28347 -22.087616c39.92105 0 72.28346 9.888962 72.28346 22.087616l0 0c0 12.198639 -32.36241 22.087616 -72.28346 22.087616c-39.92106 0 -72.28347 -9.888977 -72.28347 -22.087616z" fill-rule="evenodd"/><path fill="#000000" fill-opacity="0.0" d="m236.4567 268.1401l0 0c0 12.198639 -32.36241 22.087616 -72.28346 22.087616c-39.92106 0 -72.28347 -9.888977 -72.28347 -22.087616l0 0c0 -12.198654 32.36241 -22.087616 72.28347 -22.087616c39.92105 0 72.28346 9.888962 72.28346 22.087616l0 59.22635c0 12.198639 -32.36241 22.087616 -72.28346 22.087616c-39.92106 0 -72.28347 -9.888977 -72.28347 -22.087616l0 -59.22635" fill-rule="evenodd"/><path stroke="#000000" stroke-width="1.0" stroke-linejoin="round" stroke-linecap="butt" d="m236.4567 268.1401l0 0c0 12.198639 -32.36241 22.087616 -72.28346 22.087616c-39.92106 0 -72.28347 -9.888977 -72.28347 -22.087616l0 0c0 -12.198654 32.36241 -22.087616 72.28347 -22.087616c39.92105 0 72.28346 9.888962 72.28346 22.087616l0 59.22635c0 12.198639 -32.36241 22.087616 -72.28346 22.087616c-39.92106 0 -72.28347 -9.888977 -72.28347 -22.087616l0 -59.22635" fill-rule="evenodd"/><path fill="#999999" d="m107.23622 218.14632l0 0c0 9.60881 25.488037 17.398285 56.92914 17.398285c31.441086 0 56.929123 -7.7894745 56.929123 -17.398285l0 46.652237c0 9.608826 -25.488037 17.398285 -56.929123 17.398285c-31.441101 0 -56.92914 -7.789459 -56.92914 -17.398285z" fill-rule="evenodd"/><path fill="#c1c1c1" d="m107.23622 218.14632l0 0c0 -9.60881 25.488037 -17.398285 56.92914 -17.398285c31.441086 0 56.929123 7.7894745 56.929123 17.398285l0 0c0 9.60881 -25.488037 17.398285 -56.929123 17.398285c-31.441101 0 -56.92914 -7.7894745 -56.92914 -17.398285z" fill-rule="evenodd"/><path fill="#000000" fill-opacity="0.0" d="m221.09448 218.14632l0 0c0 9.60881 -25.488037 17.398285 -56.929123 17.398285c-31.441101 0 -56.92914 -7.7894745 -56.92914 -17.398285l0 0c0 -9.60881 25.488037 -17.398285 56.92914 -17.398285c31.441086 0 56.929123 7.7894745 56.929123 17.398285l0 46.652237c0 9.608826 -25.488037 17.398285 -56.929123 17.398285c-31.441101 0 -56.92914 -7.789459 -56.92914 -17.398285l0 -46.652237" fill-rule="evenodd"/><path stroke="#000000" stroke-width="1.0" stroke-linejoin="round" stroke-linecap="butt" d="m221.09448 218.14632l0 0c0 9.60881 -25.488037 17.398285 -56.929123 17.398285c-31.441101 0 -56.92914 -7.7894745 -56.92914 -17.398285l0 0c0 -9.60881 25.488037 -17.398285 56.92914 -17.398285c31.441086 0 56.929123 7.7894745 56.929123 17.398285l0 46.652237c0 9.608826 -25.488037 17.398285 -56.929123 17.398285c-31.441101 0 -56.92914 -7.789459 -56.92914 -17.398285l0 -46.652237" fill-rule="evenodd"/><path fill="#999999" d="m166.80786 208.48218l-16.499481 -9.530258l0 0c-5.5346375 -3.1968536 -9.572998 -8.461609 -11.226685 -14.636078c-1.6536865 -6.1744537 -0.7872467 -12.752853 2.408722 -18.287994l73.80177 -127.81848c3.32576 -5.7599564 10.690781 -7.732506 16.450195 -4.4058075l37.3795 21.590755c5.75943 3.3266983 7.7323 10.69289 4.4065247 16.452847l-73.80177 127.818474l0 0c-6.655258 11.526352 -21.393494 15.473648 -32.918777 8.816544z" fill-rule="evenodd"/><path stroke="#000000" stroke-width="1.0" stroke-linejoin="round" stroke-linecap="butt" d="m166.80786 208.48218l-16.499481 -9.530258l0 0c-5.5346375 -3.1968536 -9.572998 -8.461609 -11.226685 -14.636078c-1.6536865 -6.1744537 -0.7872467 -12.752853 2.408722 -18.287994l73.80177 -127.81848c3.32576 -5.7599564 10.690781 -7.732506 16.450195 -4.4058075l37.3795 21.590755c5.75943 3.3266983 7.7323 10.69289 4.4065247 16.452847l-73.80177 127.818474l0 0c-6.655258 11.526352 -21.393494 15.473648 -32.918777 8.816544z" fill-rule="evenodd"/><path fill="#999999" d="m248.70361 52.530502l7.1833954 -12.448231l0 0c2.4096222 -4.1756706 6.379135 -7.2227783 11.035294 -8.470987c4.6561584 -1.2482109 9.617584 -0.5952797 13.792786 1.8151569l97.776306 56.448437c4.344757 2.508339 5.834198 8.064278 3.3266907 12.409546l-16.273926 28.2014c-2.5074768 4.345276 -8.062317 5.8343964 -12.4071045 3.326065l-97.776306 -56.44844l0 0c-8.694397 -5.01947 -11.674896 -16.137562 -6.657135 -24.832947z" fill-rule="evenodd"/><path stroke="#000000" stroke-width="1.0" stroke-linejoin="round" stroke-linecap="butt" d="m248.70361 52.530502l7.1833954 -12.448231l0 0c2.4096222 -4.1756706 6.379135 -7.2227783 11.035294 -8.470987c4.6561584 -1.2482109 9.617584 -0.5952797 13.792786 1.8151569l97.776306 56.448437c4.344757 2.508339 5.834198 8.064278 3.3266907 12.409546l-16.273926 28.2014c-2.5074768 4.345276 -8.062317 5.8343964 -12.4071045 3.326065l-97.776306 -56.44844l0 0c-8.694397 -5.01947 -11.674896 -16.137562 -6.657135 -24.832947z" fill-rule="evenodd"/><path fill="#999999" d="m367.5188 117.317215l9.378571 -5.880562l0 0c3.1459656 -1.9725952 6.9472656 -2.6150284 10.567657 -1.785965c3.6203918 0.8290634 6.763336 3.061699 8.737366 6.2067566l30.569641 48.703804c2.0542297 3.2727966 1.0656128 7.589966 -2.20813 9.642685l-21.2471 13.322372c-3.2737427 2.052719 -7.5928955 1.0636444 -9.647125 -2.2091522l-30.569641 -48.703796l0 0c-4.1107483 -6.5492554 -2.1323853 -15.188431 4.418762 -19.296143z" fill-rule="evenodd"/><path stroke="#000000" stroke-width="1.0" stroke-linejoin="round" stroke-linecap="butt" d="m367.5188 117.317215l9.378571 -5.880562l0 0c3.1459656 -1.9725952 6.9472656 -2.6150284 10.567657 -1.785965c3.6203918 0.8290634 6.763336 3.061699 8.737366 6.2067566l30.569641 48.703804c2.0542297 3.2727966 1.0656128 7.589966 -2.20813 9.642685l-21.2471 13.322372c-3.2737427 2.052719 -7.5928955 1.0636444 -9.647125 -2.2091522l-30.569641 -48.703796l0 0c-4.1107483 -6.5492554 -2.1323853 -15.188431 4.418762 -19.296143z" fill-rule="evenodd"/><path fill="#999999" d="m409.78143 182.06297l19.937012 40.7874l-38.86612 -31.527557z" fill-rule="evenodd"/><path stroke="#000000" stroke-width="1.0" stroke-linejoin="round" stroke-linecap="butt" d="m409.78143 182.06297l19.937012 40.7874l-38.86612 -31.527557z" fill-rule="evenodd"/><path fill="#999999" d="m421.95703 175.1083l22.803162 39.244095l-5.669281 -49.165344z" fill-rule="evenodd"/><path stroke="#000000" stroke-width="1.0" stroke-linejoin="round" stroke-linecap="butt" d="m421.95703 175.1083l22.803162 39.244095l-5.669281 -49.165344z" fill-rule="evenodd"/><path fill="#999999" d="m418.16406 174.75726l0 0c0 -3.870346 3.1375122 -7.0078735 7.0078735 -7.0078735l0 0c1.8586121 0 3.6410828 0.738327 4.9553223 2.0525665c1.314209 1.3142242 2.0525513 3.0967102 2.0525513 4.955307l0 0c0 3.870346 -3.1375427 7.0078735 -7.0078735 7.0078735l0 0c-3.8703613 0 -7.0078735 -3.1375275 -7.0078735 -7.0078735z" fill-rule="evenodd"/><path stroke="#000000" stroke-width="1.0" stroke-linejoin="round" stroke-linecap="butt" d="m418.16406 174.75726l0 0c0 -3.870346 3.1375122 -7.0078735 7.0078735 -7.0078735l0 0c1.8586121 0 3.6410828 0.738327 4.9553223 2.0525665c1.314209 1.3142242 2.0525513 3.0967102 2.0525513 4.955307l0 0c0 3.870346 -3.1375427 7.0078735 -7.0078735 7.0078735l0 0c-3.8703613 0 -7.0078735 -3.1375275 -7.0078735 -7.0078735z" fill-rule="evenodd"/><path fill="#999999" d="m399.15228 185.76903l0 0c0 -3.870346 3.1375427 -7.0078735 7.0078735 -7.0078735l0 0c1.8586121 0 3.6410828 0.738327 4.9553223 2.0525665c1.3142395 1.3142242 2.0525513 3.0967102 2.0525513 4.955307l0 0c0 3.870346 -3.1375122 7.0078735 -7.0078735 7.0078735l0 0c-3.8703308 0 -7.0078735 -3.1375275 -7.0078735 -7.0078735z" fill-rule="evenodd"/><path stroke="#000000" stroke-width="1.0" stroke-linejoin="round" stroke-linecap="butt" d="m399.15228 185.76903l0 0c0 -3.870346 3.1375427 -7.0078735 7.0078735 -7.0078735l0 0c1.8586121 0 3.6410828 0.738327 4.9553223 2.0525665c1.3142395 1.3142242 2.0525513 3.0967102 2.0525513 4.955307l0 0c0 3.870346 -3.1375122 7.0078735 -7.0078735 7.0078735l0 0c-3.8703308 0 -7.0078735 -3.1375275 -7.0078735 -7.0078735z" fill-rule="evenodd"/></g></svg>